<?xml version="1.0" standalone="no"?>
<!DOCTYPE svg PUBLIC "-//W3C//DTD SVG 20010904//EN"
 "http://www.w3.org/TR/2001/REC-SVG-20010904/DTD/svg10.dtd">
<svg version="1.0" xmlns="http://www.w3.org/2000/svg"
 width="800.000000pt" height="575.000000pt" viewBox="0 0 800.000000 575.000000"
 preserveAspectRatio="xMidYMid meet">

<g transform="translate(0.000000,575.000000) scale(0.100000,-0.100000)"
fill="#000000" stroke="none">
<path d="M0 2875 l0 -2875 4000 0 4000 0 0 2875 0 2875 -4000 0 -4000 0 0
-2875z m4722 1948 l698 -698 -11 -39 c-6 -22 -9 -54 -7 -72 4 -32 -21 -58
-688 -725 l-692 -692 -671 664 c-468 464 -669 669 -666 680 7 23 -71 99 -101
99 -12 0 -26 5 -30 12 -5 8 250 267 727 740 404 400 736 728 739 728 3 0 319
-314 702 -697z m-1407 -1654 c573 -574 683 -679 708 -679 6 0 253 241 548 536
493 492 541 538 595 560 32 13 59 22 59 21 17 -31 55 -117 55 -126 0 -7 -11
-29 -25 -49 -14 -20 -25 -43 -25 -52 0 -16 -1206 -1227 -1214 -1220 -3 3 -334
333 -736 735 l-730 729 72 73 c40 40 77 73 83 73 5 0 280 -270 610 -601z"/>
<path d="M3453 4617 c-299 -298 -543 -549 -543 -557 0 -8 245 -259 543 -558
477 -477 547 -543 570 -540 20 2 164 140 558 533 292 291 535 537 540 547 6
12 6 24 0 36 -5 9 -250 257 -543 550 -413 412 -540 532 -559 532 -18 0 -146
-122 -566 -543z m1072 -57 l500 -500 -150 -150 -150 -151 -17 38 c-9 21 -20
63 -23 93 -3 30 -10 87 -17 125 l-11 70 -307 308 c-229 229 -312 307 -330 307
-35 0 -640 -605 -640 -640 0 -20 67 -92 308 -333 186 -185 315 -307 327 -307
10 0 50 30 89 68 70 66 72 67 126 67 50 0 56 -2 76 -33 13 -18 31 -53 40 -78
l17 -45 -169 -170 c-93 -93 -172 -168 -176 -167 -10 4 -998 991 -998 997 0 7
993 1000 1000 1001 3 0 230 -225 505 -500z m-325 -145 c111 -111 174 -182 172
-193 -1 -10 23 -44 57 -79 74 -77 92 -125 59 -160 -13 -14 -33 -23 -50 -23
-15 0 -37 -5 -48 -12 -15 -10 -22 -9 -37 5 -10 9 -39 25 -63 37 -57 25 -84 48
-103 85 -9 17 -47 61 -84 98 -62 61 -72 67 -94 59 -30 -12 -169 -155 -169
-174 0 -8 30 -44 66 -81 l66 -66 -15 -53 c-26 -91 -31 -201 -12 -238 9 -18 15
-34 13 -36 -2 -2 -112 105 -243 236 l-240 240 105 105 c61 61 110 103 118 100
37 -14 143 97 118 123 -8 7 184 202 199 202 6 0 89 -79 185 -175z m-141 -319
c21 -22 31 -39 26 -48 -16 -28 -49 -58 -64 -58 -17 0 -71 48 -71 64 0 11 60
76 70 76 3 0 21 -15 39 -34z"/>
</g>
</svg>
